<?xml version="1.0" ?><svg data-name="Layer 2" id="Layer_2" viewBox="0 0 64 64" xmlns="http://www.w3.org/2000/svg"><defs><style>.cls-1{fill:#5c3b51;}.cls-2{fill:#4a2e42;}.cls-3{fill:#f74b50;}.cls-4{fill:#d13f44;}.cls-5{fill:#ffe94f;}.cls-6{fill:#45d4d9;}.cls-7{fill:#8bd94f;}.cls-8{fill:#deb142;}.cls-9{fill:#2d95b5;}.cls-10{fill:#5fbf39;}.cls-11{fill:#2c2a3d;}</style></defs><title/><path class="cls-1" d="M44.85,21.11a30.85,30.85,0,0,0,.25,17.78c3.65,11.16.55,21.5-13.92,22.09C21,61.4,8.5,53.25,8.5,32S21,3,31.18,3C39.45,3,48,9.71,44.85,21.11Z"/><path class="cls-2" d="M31.18,6c6.66,0,13.48,4.36,14.26,12C46.37,8.5,38.67,3,31.18,3,21,3,8.5,10.73,8.5,32q0,.77,0,1.5C9.11,13.37,21.26,6,31.18,6Z"/><circle class="cls-3" cx="29.24" cy="13" r="5"/><circle class="cls-4" cx="28.41" cy="10.72" r="1"/><circle class="cls-5" cx="19.24" cy="24.27" r="5"/><circle class="cls-6" cx="19.24" cy="39" r="5"/><circle class="cls-7" cx="29.18" cy="50" r="5"/><path class="cls-3" d="M52.5,12h0a2,2,0,0,1,2,2V42a0,0,0,0,1,0,0h-4a0,0,0,0,1,0,0V14A2,2,0,0,1,52.5,12Z"/><path class="cls-1" d="M52.5,52l-2.71-6.41a3.56,3.56,0,0,1-.12-2.49A2.09,2.09,0,0,1,51,42h3a2.09,2.09,0,0,1,1.33,1.1,3.56,3.56,0,0,1-.12,2.49Z"/><circle class="cls-8" cx="18.4" cy="22.63" r="1"/><circle class="cls-9" cx="18.4" cy="38" r="1"/><circle class="cls-10" cx="28.87" cy="50" r="1"/><circle class="cls-11" cx="35.87" cy="25" r="1"/><circle class="cls-11" cx="37.37" cy="33" r="1"/><path class="cls-11" d="M30.37,29a1,1,0,1,0,1-1A1,1,0,0,0,30.37,29Z"/><path class="cls-11" d="M45.82,21.38c1.78-6.5-.16-10.9-2.1-13.44A15.76,15.76,0,0,0,31.18,2C19.39,2,7.5,11.27,7.5,32c0,13.11,4.66,20.33,8.56,24.08A21,21,0,0,0,30.45,62l.77,0c6.44-.26,11.08-2.37,13.79-6.27,2.91-4.2,3.28-10.28,1-17.13A29.84,29.84,0,0,1,45.82,21.38ZM43.36,54.57C41,57.93,36.92,59.75,31.14,60a18.92,18.92,0,0,1-13.69-5.36C13.82,51.15,9.5,44.39,9.5,32c0-13.93,6.7-28,21.68-28a14,14,0,0,1,11,5.15c2.39,3.14,3,7.18,1.76,11.7a31.88,31.88,0,0,0,.26,18.35C46.19,45.44,45.91,50.9,43.36,54.57Z"/><path class="cls-11" d="M29.24,19a6,6,0,1,0-6-6A6,6,0,0,0,29.24,19Zm0-10a4,4,0,1,1-4,4A4,4,0,0,1,29.24,9Z"/><path class="cls-11" d="M19.24,30.27a6,6,0,1,0-6-6A6,6,0,0,0,19.24,30.27Zm0-10a4,4,0,1,1-4,4A4,4,0,0,1,19.24,20.27Z"/><path class="cls-11" d="M25.24,39a6,6,0,1,0-6,6A6,6,0,0,0,25.24,39Zm-6,4a4,4,0,1,1,4-4A4,4,0,0,1,19.24,43Z"/><path class="cls-11" d="M29.18,44a6,6,0,1,0,6,6A6,6,0,0,0,29.18,44Zm0,10a4,4,0,1,1,4-4A4,4,0,0,1,29.18,54Z"/><path class="cls-11" d="M56.28,42.8a2.44,2.44,0,0,0-.78-1.1V14a3,3,0,0,0-6,0V41.71a2.51,2.51,0,0,0-.78,1.09A4.59,4.59,0,0,0,48.87,46l2.71,6.41a1,1,0,0,0,.92.61,1,1,0,0,0,.92-.61L56.13,46A4.53,4.53,0,0,0,56.28,42.8ZM51.5,39h2v2h-2Zm1-26a1,1,0,0,1,1,1V37h-2V14A1,1,0,0,1,52.5,13Zm1.79,32.2L52.5,49.43,50.71,45.2a2.55,2.55,0,0,1-.09-1.78,1.33,1.33,0,0,1,.5-.42h2.76a1.41,1.41,0,0,1,.5.41A2.52,2.52,0,0,1,54.29,45.2Z"/></svg>