<?xml version="1.0" ?><svg viewBox="0 0 512 512" xmlns="http://www.w3.org/2000/svg"><g id="Cloud_link_organization"><path d="M468.1164,283.5109l-124.55-81.707a11.9256,11.9256,0,0,0-12.9385-.0811L202.6008,283.4289a11.9079,11.9079,0,0,0,6.4052,21.9463h13.4322a15.1272,15.1272,0,0,0-.1636,2.1006V323.1A15.1183,15.1183,0,0,0,237.3762,338.2h11.4961V412.385H186.3849a24.0379,24.0379,0,0,0-46.1279,0H117.4592a14.022,14.022,0,0,1-14.0059-14.0059V366.0036a24.0374,24.0374,0,0,0,0-46.2869v-22.8a100.4027,100.4027,0,0,0,16.7109,1.4014h41.31a6.5,6.5,0,1,0,0-13h-41.31c-47.38,0-86.208-38.0205-86.5546-84.7539a85.4032,85.4032,0,0,1,85.4013-86.0528l.2383.001h.1143A41.8828,41.8828,0,0,0,157.2414,90.38a95.2862,95.2862,0,0,1,172.8418,0,41.8955,41.8955,0,0,0,37.9316,24.1318h.1162l.1827-.001a85.2946,85.2946,0,0,1,81.333,111.333,6.5,6.5,0,1,0,12.3672,4.0039,98.3619,98.3619,0,0,0-93.7-128.3369l-.2745.001h-.08A28.8393,28.8393,0,0,1,341.8723,84.9a108.2874,108.2874,0,0,0-196.42,0,28.8221,28.8221,0,0,1-26.0332,16.6133c-.0254,0-.0517,0-.0781-.001l-.33-.001A98.4035,98.4035,0,0,0,20.61,200.6594c.3237,43.635,29.7119,80.6748,69.8437,93.1572v25.9a24.0371,24.0371,0,0,0,0,46.2869v32.3755a27.0371,27.0371,0,0,0,27.0059,27.0059h22.6391a24.0412,24.0412,0,0,0,46.4458,0h35.8946a15.0635,15.0635,0,0,0-.1641,2.1015V443.11a15.0635,15.0635,0,0,0,.1641,2.1015h-5.75a15.1181,15.1181,0,0,0-15.1006,15.1006v15.6231a15.1183,15.1183,0,0,0,15.1006,15.1015H453.507a15.1183,15.1183,0,0,0,15.1006-15.1015V460.3117a15.1181,15.1181,0,0,0-15.1006-15.1006h-5.75a15.0635,15.0635,0,0,0,.1641-2.1015V427.4865A15.1185,15.1185,0,0,0,432.82,412.385H421.3234V338.2H432.82A15.1183,15.1183,0,0,0,447.9211,323.1v-15.624a15.1272,15.1272,0,0,0-.1636-2.1006h13.8267a11.9078,11.9078,0,0,0,6.5322-21.8643Zm-382.207,59.35a11.0435,11.0435,0,1,1,11.0439,11.043A11.0562,11.0562,0,0,1,85.9094,342.8605ZM383.092,412.385H354.214V338.2h28.878Zm-67.11,0H287.1037V338.2h28.8779Zm-152.66,17.8222a11.0435,11.0435,0,1,1,11.0429-11.0429A11.056,11.056,0,0,1,163.3215,430.2072Zm271.6-2.7207V443.11a2.1035,2.1035,0,0,1-2.1016,2.1015H237.3762a2.1035,2.1035,0,0,1-2.1016-2.1015V427.4865a2.1034,2.1034,0,0,1,2.1016-2.1015H432.82A2.1034,2.1034,0,0,1,434.9211,427.4865Zm0-120.0107V323.1A2.1033,2.1033,0,0,1,432.82,325.2H237.3762a2.1033,2.1033,0,0,1-2.1016-2.1006v-15.624a2.1033,2.1033,0,0,1,2.1016-2.1006H432.82A2.1033,2.1033,0,0,1,434.9211,307.4758Z"/><path d="M119.424,132.3908A67.0246,67.0246,0,0,0,52.4025,199.926a6.5,6.5,0,0,0,6.499,6.4521H58.95a6.5,6.5,0,0,0,6.4521-6.5478,54.0241,54.0241,0,0,1,54.0039-54.4395l.3594.001a6.5,6.5,0,1,0,.0352-13Z"/></g></svg>