<?xml version="1.0" ?><!DOCTYPE svg  PUBLIC '-//W3C//DTD SVG 1.1//EN'  'http://www.w3.org/Graphics/SVG/1.1/DTD/svg11.dtd'><svg height="512px" style="enable-background:new 0 0 512 512;" version="1.1" viewBox="0 0 512 512" width="512px" xml:space="preserve" xmlns="http://www.w3.org/2000/svg" xmlns:xlink="http://www.w3.org/1999/xlink"><g id="_x33_3_x2C__Slides"><g><circle cx="458.5" cy="308.5" r="7.5" style="fill:#1E81CE;"/><circle cx="438.5" cy="138.5" r="7.5" style="fill:#1E81CE;"/><polygon points="351,111 351,51 111,51 111,121 111,461 411,461 411,111   " style="fill:#FFFFFF;"/><path d="M411,111h-60V51C369.551,69.55,392.45,92.45,411,111z" style="fill:#9BC9FF;"/><rect height="260" style="fill:#9BC9FF;" width="230" x="146" y="166"/><polygon points="341,236 341,386 206,386 206,356 311,356 311,236   " style="fill:#FFFFFF;"/><polygon points="311,236 311,356 206,356 181,356 181,211 311,211   " style="fill:#FFFFFF;"/><circle cx="78.5" cy="453.5" r="7.5" style="fill:#1E81CE;"/><path d="M68.5,356c9.67,0,17.5,7.83,17.5,17.5S78.17,391,68.5,391c-9.66,0-17.5-7.83-17.5-17.5    S58.84,356,68.5,356z" style="fill:#FFFFFF;"/><circle cx="58.5" cy="98.5" r="7.5" style="fill:#1E81CE;"/><circle cx="53.5" cy="263.5" r="7.5" style="fill:#1E81CE;"/><path d="M411,466H111c-2.761,0-5-2.238-5-5V51c0-2.761,2.239-5,5-5h240c1.326,0,2.598,0.527,3.535,1.464    l60,60c0.938,0.938,1.465,2.209,1.465,3.536v350C416,463.762,413.762,466,411,466z M116,456h290V113.071L348.929,56H116V456z" style="fill:#1E81CE;"/><path d="M411,116h-60c-2.762,0-5-2.239-5-5V51c0-2.761,2.238-5,5-5s5,2.239,5,5v55h55c2.762,0,5,2.239,5,5    S413.762,116,411,116z" style="fill:#1E81CE;"/><path d="M376,431H146c-2.761,0-5-2.238-5-5V166c0-2.761,2.239-5,5-5h230c2.762,0,5,2.239,5,5v260    C381,428.762,378.762,431,376,431z M151,421h220V171H151V421z" style="fill:#1E81CE;"/><path d="M68.5,396C56.093,396,46,385.906,46,373.5S56.093,351,68.5,351S91,361.094,91,373.5    S80.907,396,68.5,396z M68.5,361c-6.893,0-12.5,5.607-12.5,12.5S61.607,386,68.5,386S81,380.393,81,373.5S75.393,361,68.5,361z" style="fill:#1E81CE;"/><path d="M311,361H181c-2.761,0-5-2.238-5-5V211c0-2.761,2.239-5,5-5h130c2.762,0,5,2.239,5,5v145    C316,358.762,313.762,361,311,361z M186,351h120V216H186V351z" style="fill:#1E81CE;"/><path d="M341,391H206c-2.761,0-5-2.238-5-5v-30c0-2.762,2.239-5,5-5s5,2.238,5,5v25h125V241h-25    c-2.762,0-5-2.239-5-5s2.238-5,5-5h30c2.762,0,5,2.239,5,5v150C346,388.762,343.762,391,341,391z" style="fill:#1E81CE;"/><path d="M206,126h-95c-2.761,0-5-2.239-5-5s2.239-5,5-5h95c2.761,0,5,2.239,5,5S208.761,126,206,126z" style="fill:#1E81CE;"/><path d="M256,146h-55c-2.761,0-5-2.239-5-5s2.239-5,5-5h55c2.762,0,5,2.239,5,5S258.762,146,256,146z" style="fill:#1E81CE;"/></g></g><g id="Layer_1"/></svg>