<?xml version="1.0" ?><svg height="512" viewBox="0 0 512 512" width="512" xmlns="http://www.w3.org/2000/svg"><g><g><path d="M164,296H348a60,60,0,0,1,60,60v52a0,0,0,0,1,0,0H104a0,0,0,0,1,0,0V356A60,60,0,0,1,164,296Z" fill="#5ec09b"/><path d="M256,112h0a88,88,0,0,0-88,88v80a40,40,0,0,0,40,40h96a40,40,0,0,0,40-40V200A88,88,0,0,0,256,112Z" fill="#fac8b2"/><path d="M160,200H352V148a60,60,0,0,0-60-60H220a60,60,0,0,0-60,60Z" fill="#5ec09b"/><circle cx="256" cy="112" fill="#eceff0" r="56"/><path d="M168,248h0V200H152a16,16,0,0,0-16,16h0A32,32,0,0,0,168,248Z" fill="#eaaa94"/><path d="M344,248h0V200h16a16,16,0,0,1,16,16h0A32,32,0,0,1,344,248Z" fill="#eaaa94"/><circle cx="216" cy="224" fill="#683b11" r="8"/><circle cx="296" cy="224" fill="#683b11" r="8"/><path d="M360,416a8,8,0,0,1-8-8V392a32,32,0,0,0-64,0v16a8,8,0,0,1-16,0V392a48,48,0,0,1,96,0v16A8,8,0,0,1,360,416Z" fill="#2c3f51"/><path d="M320,360a8,8,0,0,1-8-8V320a8,8,0,0,1,16,0v32A8,8,0,0,1,320,360Z" fill="#2c3f51"/><path d="M192,384a8,8,0,0,1-8-8V320a8,8,0,0,1,16,0v56A8,8,0,0,1,192,384Z" fill="#2c3f51"/><circle cx="192" cy="392" fill="#eceff0" r="16"/><path d="M256,416a8,8,0,0,1-8-8V352a8,8,0,0,1,16,0v56A8,8,0,0,1,256,416Z" fill="#42a87e"/><path d="M128,72H104a8,8,0,0,1,0-16h24a8,8,0,0,1,0,16Z" fill="#00a8e7"/><path d="M88,96a7.969,7.969,0,0,1-5.655-2.342l-8-8a8,8,0,1,1,11.31-11.316l8,8A8,8,0,0,1,88,96Z" fill="#00a8e7"/><path d="M64,136a8,8,0,0,1-8-8V104a8,8,0,0,1,16,0v24A8,8,0,0,1,64,136Z" fill="#00a8e7"/><polygon fill="#94a4a5" points="40 72 72 40 40 40 40 72"/><path d="M40,48a7.974,7.974,0,0,1-5.657-2.343l-16-16A8,8,0,0,1,29.657,18.343l16,16A8,8,0,0,1,40,48Z" fill="#7f8b8c"/><path d="M104,264H84a8,8,0,0,1,0-16h20a8,8,0,1,1,0,16Z" fill="#00a8e7"/><path d="M80,240a8,8,0,0,1-5.657-13.657l16-16a8,8,0,0,1,11.314,11.314l-16,16A7.974,7.974,0,0,1,80,240Z" fill="#00a8e7"/><path d="M96,304a7.974,7.974,0,0,1-5.657-2.343l-16-16a8,8,0,0,1,11.314-11.314l16,16A8,8,0,0,1,96,304Z" fill="#00a8e7"/><polygon fill="#94a4a5" points="56 232 56 280 32 256 56 232"/><path d="M408,72H384a8,8,0,0,1,0-16h24a8,8,0,0,1,0,16Z" fill="#00a8e7"/><path d="M424,96a8,8,0,0,1-5.657-13.657l8-8a8,8,0,0,1,11.314,11.314l-8,8A7.974,7.974,0,0,1,424,96Z" fill="#00a8e7"/><path d="M448,136a8,8,0,0,1-8-8V104a8,8,0,0,1,16,0v24A8,8,0,0,1,448,136Z" fill="#00a8e7"/><polygon fill="#94a4a5" points="472 72 440 40 472 40 472 72"/><path d="M472,48a8,8,0,0,1-5.657-13.657l16-16a8,8,0,0,1,11.314,11.314l-16,16A7.974,7.974,0,0,1,472,48Z" fill="#7f8b8c"/><path d="M128,456H104a8,8,0,0,1,0-16h24a8,8,0,1,1,0,16Z" fill="#00a8e7"/><path d="M80,440a8,8,0,0,1-5.655-13.658l8-8a8,8,0,1,1,11.31,11.316l-8,8A7.969,7.969,0,0,1,80,440Z" fill="#00a8e7"/><path d="M64,416a8,8,0,0,1-8-8V384a8,8,0,0,1,16,0v24A8,8,0,0,1,64,416Z" fill="#00a8e7"/><polygon fill="#94a4a5" points="40 439.996 72 471.996 40 471.996 40 439.996"/><path d="M24,496a8,8,0,0,1-5.657-13.657l16-16a8,8,0,1,1,11.314,11.314l-16,16A7.974,7.974,0,0,1,24,496Z" fill="#7f8b8c"/><path d="M408,456H384a8,8,0,0,1,0-16h24a8,8,0,0,1,0,16Z" fill="#00a8e7"/><path d="M432,440a7.969,7.969,0,0,1-5.655-2.342l-8-8a8,8,0,0,1,11.31-11.316l8,8A8,8,0,0,1,432,440Z" fill="#00a8e7"/><path d="M448,416a8,8,0,0,1-8-8V384a8,8,0,0,1,16,0v24A8,8,0,0,1,448,416Z" fill="#00a8e7"/><polygon fill="#94a4a5" points="472 439.996 440 471.996 472 471.996 472 439.996"/><path d="M488,496a7.974,7.974,0,0,1-5.657-2.343l-16-16a8,8,0,1,1,11.314-11.314l16,16A8,8,0,0,1,488,496Z" fill="#7f8b8c"/><path d="M428,264H408a8,8,0,0,1,0-16h20a8,8,0,0,1,0,16Z" fill="#00a8e7"/><path d="M432,240a7.974,7.974,0,0,1-5.657-2.343l-16-16a8,8,0,0,1,11.314-11.314l16,16A8,8,0,0,1,432,240Z" fill="#00a8e7"/><path d="M416,304a8,8,0,0,1-5.657-13.657l16-16a8,8,0,0,1,11.314,11.314l-16,16A7.974,7.974,0,0,1,416,304Z" fill="#00a8e7"/><polygon fill="#94a4a5" points="456 232 456 280 480 256 456 232"/><path d="M32,264H24a8,8,0,0,1,0-16h8a8,8,0,0,1,0,16Z" fill="#7f8b8c"/><path d="M488,264h-8a8,8,0,0,1,0-16h8a8,8,0,0,1,0,16Z" fill="#7f8b8c"/><circle cx="256" cy="112" fill="#d1e1e5" r="16"/><path d="M160,248H352a0,0,0,0,1,0,0v32a40,40,0,0,1-40,40H200a40,40,0,0,1-40-40V248A0,0,0,0,1,160,248Z" fill="#42a87e"/><path d="M232,320h48a0,0,0,0,1,0,0v8a24,24,0,0,1-24,24h0a24,24,0,0,1-24-24v-8A0,0,0,0,1,232,320Z" fill="#fac8b2"/></g><path d="M416,408V356a68.274,68.274,0,0,0-56.846-67.07c1.512-6.051.625-29.726.846-36.28A40.052,40.052,0,0,0,384,216a24.028,24.028,0,0,0-24-24V148a68.072,68.072,0,0,0-46.774-64.606c-23.361-46.96-91.111-46.934-114.452,0A68.072,68.072,0,0,0,152,148v44a24.028,24.028,0,0,0-24,24,40.052,40.052,0,0,0,24,36.65c.225,6.7-.673,30.093.846,36.28A68.274,68.274,0,0,0,96,356v52a8,8,0,0,0,8,8H408A8,8,0,0,0,416,408ZM176,240V208H336v32Zm192-24a24.042,24.042,0,0,1-16,22.629V208h8A8.009,8.009,0,0,1,368,216ZM256,64a48.053,48.053,0,0,1,48,48c-2.636,63.679-93.374,63.66-96,0A48.053,48.053,0,0,1,256,64Zm-88,84a52.092,52.092,0,0,1,24.54-44.173C187.368,141.642,217.812,176.286,256,176c38.184.287,68.638-34.36,63.46-72.173A52.092,52.092,0,0,1,344,148v44H168Zm-24,68a8.009,8.009,0,0,1,8-8h8v30.629A24.042,24.042,0,0,1,144,216Zm200,40v24a32.036,32.036,0,0,1-32,32c-5.146,0-26.424,0-32,0H232c-5.62,0-26.716,0-32,0a32.036,32.036,0,0,1-32-32V256Zm8,144H288v-8a32,32,0,0,1,64,0Zm-40-55.321A48.069,48.069,0,0,0,272,392v8h-8V358.987A32.057,32.057,0,0,0,288,328h24ZM184,392a8.009,8.009,0,0,1,8-8c10.6.4,10.6,15.6,0,16A8.009,8.009,0,0,1,184,392Zm16-22.624V328h24a32.057,32.057,0,0,0,24,30.987V400H214.624C219.243,387.808,212,373.3,200,369.376ZM256,344a16.019,16.019,0,0,1-16-16h32A16.019,16.019,0,0,1,256,344ZM112,356a52.184,52.184,0,0,1,46.626-51.708A48.247,48.247,0,0,0,184,325.248v44.128C172,373.3,164.757,387.81,169.376,400H112Zm288,44H368v-8a48.069,48.069,0,0,0-40-47.321V325.248a48.247,48.247,0,0,0,25.374-20.956A52.184,52.184,0,0,1,400,356ZM224,224c-.391,10.6-15.608,10.6-16,0a8,8,0,0,1,16,0Zm80,0c-.391,10.6-15.608,10.6-16,0a8,8,0,0,1,16,0ZM104,56h24c10.6.393,10.594,15.611,0,16H104C93.4,71.607,93.406,56.389,104,56ZM85.655,74.342l8,8c7.232,7.744-3.565,18.544-11.31,11.316l-8-8C67.112,77.913,77.912,67.114,85.655,74.342ZM72,104v24c-.393,10.6-15.611,10.594-16,0V104a8,8,0,0,1,16,0ZM32,43.314V72a8,8,0,0,0,13.657,5.657l32-32A8,8,0,0,0,72,32H43.314L29.657,18.343A8,8,0,0,0,18.343,29.657Zm16,9.373V48h4.687ZM104,264H84c-10.6-.393-10.595-15.61,0-16h20a8,8,0,1,1,0,16ZM74.343,226.343l16-16c7.752-7.23,18.54,3.573,11.314,11.314l-16,16a8,8,0,0,1-11.314-11.314Zm0,59.314c-7.232-7.752,3.573-18.539,11.314-11.314l16,16c7.231,7.749-3.571,18.541-11.314,11.314Zm-24-59.314L28.686,248H24a8,8,0,0,0,0,16h4.686l21.657,21.657C55.251,290.688,64.1,287.008,64,280V232C64.1,225,55.231,221.306,50.343,226.343ZM48,260.687,43.313,256,48,251.313ZM384,56h24c10.6.393,10.594,15.611,0,16H384C373.4,71.607,373.405,56.389,384,56Zm34.344,26.343,8-8c7.749-7.228,18.542,3.57,11.314,11.314l-8,8a8,8,0,0,1-11.314-11.314ZM440,128V104c.393-10.6,15.611-10.594,16,0v24a8,8,0,1,1-16,0Zm26.343-50.342C471.253,82.692,480.1,79,480,72V43.314l13.657-13.657a8,8,0,0,0-11.314-11.314L468.686,32H440c-7.012-.1-10.688,8.768-5.657,13.657ZM464,48v4.687L459.313,48ZM128,456H104c-10.6-.393-10.594-15.61,0-16h24C138.6,440.389,138.593,455.607,128,456ZM93.655,429.658l-8,8A7.969,7.969,0,0,1,80,440c-6.963.121-10.715-8.742-5.655-13.658l8-8C90.092,411.112,100.886,421.918,93.655,429.658ZM56,408V384c.393-10.6,15.611-10.594,16,0v24a8,8,0,0,1-16,0ZM45.657,434.339C40.766,429.312,31.9,432.982,32,440v28.686L18.343,482.339a8,8,0,0,0,11.314,11.314L43.314,480H72c7.012.1,10.688-8.768,5.657-13.657ZM48,464V459.31L52.687,464Zm360-8H384c-10.6-.393-10.594-15.61,0-16h24C418.6,440.389,418.594,455.607,408,456Zm24-16a7.969,7.969,0,0,1-5.655-2.342l-8-8a8,8,0,0,1,11.31-11.316l8,8C442.718,431.256,438.961,440.115,432,440Zm8-32V384c.393-10.6,15.611-10.594,16,0v24a8,8,0,0,1-16,0Zm40,60.686V440c.1-7.009-8.766-10.689-13.657-5.657l-32,32A8,8,0,0,0,440,480h28.686l13.657,13.657a8,8,0,0,0,11.314-11.314Zm-16-9.372V464h-4.687ZM408,248h20c10.6.393,10.6,15.61,0,16H408a8,8,0,0,1,0-16Zm29.658-21.657c7.231,7.749-3.571,18.541-11.314,11.314l-16-16c-7.232-7.752,3.573-18.539,11.314-11.314Zm-27.314,64,16-16a8,8,0,0,1,11.314,11.314l-16,16A7.974,7.974,0,0,1,416,304C409.035,304.121,405.286,295.259,410.343,290.343ZM483.314,264H488a8,8,0,0,0,0-16h-4.686l-21.657-21.657C456.77,221.321,447.9,224.98,448,232v48c-.1,7,8.748,10.7,13.657,5.657ZM464,251.313,468.687,256,464,260.687ZM256,136a24.028,24.028,0,0,0,24-24c-1.319-31.839-46.686-31.83-48,0A24.028,24.028,0,0,0,256,136Zm0-32a8.009,8.009,0,0,1,8,8c-.4,10.6-15.6,10.6-16,0A8.009,8.009,0,0,1,256,104Z"/></g></svg>